# xmcd
#
# Track frame offsets: 
#        150
#        15504
#        33743
#        69307
#        84819
#        100262
#        117822
#        128920
#        157523
#        178921
#        193263
#        214220
#        231194
#        244014
#
# Disc length: 3459 seconds
#
# Revision: 0
# Processed by: cddbd v1.5.2PL0 Copyright (c) Steve Scherf et al.
# Submitted via: ExactAudioCopy v1.3
#
DISCID=b20d810e
DTITLE=Various Artist - Soul Bag Sampler, Mar 2009
DYEAR=2009
DGENRE=Blues
TTITLE0=Chicago Blues - A living History - Sugar sweet
TTITLE1=Lil' Dave Thomson - Deep in the night
TTITLE2=Anthony Hamilton - Prayin' for you - Superman
TTITLE3=Braithwaite and Whiteley - The loving you bring
TTITLE4=Julien Brunetaud - Everybody boogie
TTITLE5=Bobby Jones - She's the one
TTITLE6=Jimmy Huges - Steal away
TTITLE7=Spencer Bohren - Long black line
TTITLE8=The Soul Sisters - I'm still here
TTITLE9=Malted Milk - Straight woman blues
TTITLE10=The Natural Blues - Aby blues
TTITLE11=The Soul Of John Black - Last forever
TTITLE12=Roscoe Robinson - Leave you in the arms of your other man
TTITLE13=James Carter and The Mighty Stars - You don't know how blessed 
TTITLE13=you are
EXTD=
EXTT0=
EXTT1=
EXTT2=
EXTT3=
EXTT4=
EXTT5=
EXTT6=
EXTT7=
EXTT8=
EXTT9=
EXTT10=
EXTT11=
EXTT12=
EXTT13=
PLAYORDER=
